<svg width="94" height="95" viewBox="0 0 94 95" fill="none" xmlns="http://www.w3.org/2000/svg">
<path d="M93.3969 85.1262C93.3969 89.0782 89.244 91.5927 85.6421 90.1739C54.954 96.8268 36.0763 96.1806 8.3584 90.1739C4.70465 91.6114 0.603516 89.0678 0.603516 85.1262C0.603516 84.2127 3.3811 80.6128 3.79122 79.8423C3.32518 77.682 2.26054 70.8592 2.26054 53.6427C2.26054 47.1036 5.7113 28.3461 6.88364 22.1592H87.1168C88.2892 28.3461 91.7399 47.1036 91.7399 53.6427C91.7399 70.8592 90.6753 77.682 90.2092 79.8423C90.6339 80.6128 93.3969 84.2107 93.3969 85.1262Z" fill="#5297DB"/>
<path d="M90.2043 79.8423C90.6703 77.682 91.735 70.8592 91.735 53.6427C91.735 47.1036 88.2842 28.3461 87.1119 22.1592H76.4369C72.4393 55.5866 48.5392 82.8989 16.9248 91.9063C40.2213 96.2353 58.2142 96.1191 85.6371 90.1739C89.2391 91.5927 93.392 89.0782 93.392 85.1262C93.392 84.2107 90.6289 80.6128 90.2043 79.8423Z" fill="#4485C5"/>
<path d="M54.4569 81.812H39.5437C33.6108 81.812 27.921 79.4551 23.7258 75.26C19.5306 71.0648 17.1738 65.375 17.1738 59.4421C17.1738 53.5093 19.5306 47.8194 23.7258 43.6242C27.921 39.4291 33.6108 37.0723 39.5437 37.0723H54.4569C60.3898 37.0723 66.0796 39.4291 70.2748 43.6242C74.4699 47.8194 76.8268 53.5093 76.8268 59.4421C76.8268 65.375 74.4699 71.0648 70.2748 75.26C66.0796 79.4551 60.3898 81.812 54.4569 81.812Z" fill="white"/>
<path d="M55.8307 61.3951H41.1143L44.4558 55.9325C44.5172 55.8321 44.5497 55.7166 44.5497 55.5988V44.2217H52.3953V55.5988C52.3953 55.7166 52.4278 55.832 52.4893 55.9325L55.8307 61.3951Z" fill="#D3E1F4"/>
<path d="M55.8308 61.3952H52.8072L49.3717 55.7789V48.9368C49.3717 48.0057 48.6171 47.2511 47.686 47.2511H44.5498V44.2217H52.3953V55.5986C52.3953 55.7169 52.4279 55.832 52.4893 55.9324L55.8308 61.3952Z" fill="#B3CBEA"/>
<path d="M55.4401 60.7559H41.5053L37.4282 67.4209C35.4007 70.7354 37.786 74.9907 41.6714 74.9907H55.274C59.1594 74.9907 61.5447 70.7354 59.5172 67.4209L55.4401 60.7559Z" fill="#5297DB"/>
<path d="M55.4395 60.7559H52.4159L56.4931 67.4208C58.521 70.7354 56.1357 74.9907 52.25 74.9907H55.2736C59.1593 74.9907 61.5447 70.7354 59.5168 67.4208L55.4395 60.7559Z" fill="#4485C5"/>
<path d="M52.7968 45.2699H44.1496C43.58 45.2699 43.1182 44.8081 43.1182 44.2384C43.1182 43.6688 43.5799 43.207 44.1496 43.207H52.7968C53.3665 43.207 53.8283 43.6688 53.8283 44.2384C53.8283 44.8081 53.3665 45.2699 52.7968 45.2699Z" fill="#EAF6FF"/>
<path d="M53.8274 44.2386C53.8274 44.5231 53.7123 44.7815 53.5256 44.9682C53.3389 45.155 53.0805 45.2701 52.7959 45.2701H50.6094C50.8947 45.2701 51.1524 45.155 51.3392 44.9682C51.5253 44.7815 51.641 44.5231 51.641 44.2386C51.6409 43.6688 51.1792 43.207 50.6094 43.207H52.7959C53.3657 43.207 53.8274 43.6688 53.8274 44.2386Z" fill="#D3E1F4"/>
<path opacity="0.1" d="M39.1621 81.8053C39.2899 81.8076 39.4177 81.8103 39.5461 81.8103H54.4594C58.8322 81.8125 63.1098 80.5325 66.7625 78.1285C70.4153 75.7245 73.2829 72.3021 75.0105 68.2849C76.738 64.2678 77.2497 59.8322 76.4821 55.5273C75.7145 51.2223 73.7013 47.2369 70.6918 44.0645C64.2273 59.5358 53.2367 72.6915 39.1621 81.8053Z" fill="black"/>
<path d="M83.1678 17.0038H10.8326C10.7115 17.004 10.5927 16.9852 10.4894 16.9494C10.3861 16.9136 10.3025 16.8622 10.2479 16.801C10.1933 16.7399 10.1698 16.6713 10.1801 16.6031C10.1904 16.5348 10.2341 16.4695 10.3062 16.4144L10.3136 16.4093C16.5154 12.0157 36.6645 0.801758 47.0001 0.801758C56.5883 0.801758 77.5185 12.0407 83.6875 16.4093L83.6948 16.4144C83.767 16.4695 83.8107 16.5348 83.821 16.6031C83.8312 16.6715 83.8077 16.74 83.753 16.8012C83.6983 16.8624 83.6146 16.9137 83.5113 16.9495C83.4079 16.9853 83.289 17.0041 83.1678 17.0038Z" fill="#FFBF00"/>
<path d="M83.6964 16.4076L83.6891 16.4025C79.6342 13.4617 68.8496 7.59934 59.4787 3.90137C57.2882 9.30135 51.9622 13.8768 44.0547 17.0039H83.1757C83.2954 17.0042 83.4129 16.9851 83.515 16.949C83.6171 16.9128 83.6998 16.8608 83.7538 16.7989C83.8079 16.737 83.8311 16.6677 83.821 16.5985C83.8108 16.5294 83.7677 16.4633 83.6964 16.4076Z" fill="#E1A800"/>
<path d="M88.4259 32.1013H5.57459C4.25618 32.1013 2.99177 31.5776 2.05951 30.6453C1.12725 29.7131 0.603516 28.4487 0.603516 27.1303C0.603516 25.8118 1.12725 24.5474 2.05951 23.6152C2.99177 22.6829 4.25618 22.1592 5.57459 22.1592H88.4259C89.7443 22.1592 91.0087 22.6829 91.9409 23.6152C92.8732 24.5474 93.3969 25.8118 93.3969 27.1303C93.3969 28.4487 92.8732 29.7131 91.9409 30.6453C91.0087 31.5776 89.7443 32.1013 88.4259 32.1013Z" fill="#4485C5"/>
<path d="M88.4259 25.4734H5.57459C4.25618 25.4734 2.99177 24.9497 2.05951 24.0174C1.12725 23.0852 0.603516 21.8207 0.603516 20.5023C0.603516 19.1839 1.12725 17.9195 2.05951 16.9872C2.99177 16.055 4.25618 15.5313 5.57459 15.5312H88.4259C89.7443 15.5313 91.0087 16.055 91.9409 16.9872C92.8732 17.9195 93.3969 19.1839 93.3969 20.5023C93.3969 21.8207 92.8732 23.0852 91.9409 24.0174C91.0087 24.9497 89.7443 25.4734 88.4259 25.4734Z" fill="#5297DB"/>
</svg>
