<svg width="70" height="94" viewBox="0 0 70 94" fill="none" xmlns="http://www.w3.org/2000/svg">
<path d="M61.0312 35.439H58.125V23.814C58.125 10.9916 47.6974 0.563965 34.875 0.563965C22.0526 0.563965 11.625 10.9916 11.625 23.814V35.439H8.71875C3.91375 35.439 0 39.3488 0 44.1577V84.8452C0 89.6541 3.91375 93.564 8.71875 93.564H61.0312C65.8363 93.564 69.75 89.6541 69.75 84.8452V44.1577C69.75 39.3488 65.8363 35.439 61.0312 35.439ZM19.375 23.814C19.375 15.2657 26.3267 8.31396 34.875 8.31396C43.4233 8.31396 50.375 15.2657 50.375 23.814V35.439H19.375V23.814ZM38.75 65.3617V74.189C38.75 76.328 37.0179 78.064 34.875 78.064C32.7321 78.064 31 76.328 31 74.189V65.3617C28.6944 64.0171 27.125 61.5448 27.125 58.689C27.125 54.4148 30.6009 50.939 34.875 50.939C39.1491 50.939 42.625 54.4148 42.625 58.689C42.625 61.5448 41.0556 64.0171 38.75 65.3617Z" fill="#FCEAC8"/>
</svg>
