<svg width="26" height="40" viewBox="0 0 26 40" fill="none" xmlns="http://www.w3.org/2000/svg">
<path d="M9.71908 8.13353C7.99819 5.76695 8.55144 0.0922852 11.5779 0.0922852C13.0457 0.0922852 14.2403 1.76766 14.3925 3.90953C15.2032 2.19433 17.2497 -0.167982 18.689 0.664018C20.5479 1.73637 18.2183 6.54491 16.4832 8.16482C15.3909 8.00126 14.2318 7.91451 13.0001 7.91451C11.8453 7.91451 10.7516 7.98989 9.71908 8.13353Z" fill="#875240"/>
<path d="M25.8002 21.4256C25.8002 12.8923 20.0701 10.0479 13.0002 10.0479C5.93033 10.0479 0.200195 12.8923 0.200195 21.4256C0.200195 27.5924 3.01051 32.5659 1.72197 39.3755C1.68357 39.5775 1.88411 39.741 2.069 39.65L7.11788 37.1639C7.23877 37.1042 7.381 37.1042 7.50331 37.1654L12.8068 39.8164C12.9291 39.8775 13.0727 39.8775 13.1936 39.8164L18.4999 37.1639C18.6194 37.1042 18.7602 37.1028 18.8797 37.1611L23.9428 39.5831C24.1262 39.6713 24.3211 39.5106 24.2855 39.3101C23.0852 32.573 25.8002 27.6863 25.8002 21.4256ZM5.88908 21.4256C5.10402 21.4256 4.46686 20.7885 4.46686 20.0034C4.46686 19.2183 5.10402 18.5812 5.88908 18.5812C6.67415 18.5812 7.31131 19.2183 7.31131 20.0034C7.31131 20.7885 6.67415 21.4256 5.88908 21.4256ZM17.0749 24.8617L13.3316 30.8521C13.1794 31.0967 12.8224 31.0967 12.6702 30.8521L8.92695 24.8617C8.81886 24.6882 8.86295 24.4507 9.02651 24.3284C11.6761 22.3543 14.3257 22.3543 16.9753 24.3284C17.1389 24.4507 17.1829 24.6882 17.0749 24.8617ZM20.1113 21.4256C19.3262 21.4256 18.6891 20.7885 18.6891 20.0034C18.6891 19.2183 19.3262 18.5812 20.1113 18.5812C20.8964 18.5812 21.5335 19.2183 21.5335 20.0034C21.5335 20.7885 20.8964 21.4256 20.1113 21.4256Z" fill="#875240"/>
</svg>
