<svg width="40" height="40" viewBox="0 0 40 40" fill="none" xmlns="http://www.w3.org/2000/svg">
<path d="M30.9063 8.32099C29.2149 7.02646 27.1579 6.07255 24.9751 5.49521C24.8235 4.96474 24.5336 4.46396 24.1188 4.06005C24.1188 4.06005 24.0915 4.03349 24.0891 4.03115C23.3001 3.26318 23.1485 2.06943 23.7211 1.12802C24.3946 0.0209896 25.8422 -0.331354 26.9485 0.341302C29.6485 1.98271 31.1711 5.10224 30.9063 8.32099Z" fill="#875240"/>
<path d="M15.6884 4.03115C15.6861 4.03349 15.6588 4.06005 15.6588 4.06005C15.2291 4.47958 14.9322 5.00458 14.7861 5.55849C12.5978 6.16708 10.5525 7.15458 8.88766 8.48271C8.55797 5.22333 10.0619 2.02333 12.8291 0.341302C13.9353 -0.331354 15.3838 0.0209896 16.0564 1.12802C16.6291 2.06951 16.4775 3.26318 15.6884 4.03115Z" fill="#875240"/>
<path d="M20 7.1875C13.8266 7.1875 7.10938 10.6805 7.10938 16.5625C7.10938 20.5 9.37578 23.9281 10.757 27.3227C12.0609 26.4477 13.6281 25.9375 15.3125 25.9375H24.6875C26.3719 25.9375 27.9391 26.4477 29.243 27.3227C30.6242 23.9273 32.8906 20.4961 32.8906 16.5625C32.8906 10.6687 26.1555 7.1875 20 7.1875ZM15.3125 21.25C14.6656 21.25 14.1406 20.725 14.1406 20.0781C14.1406 19.4312 14.6656 18.9062 15.3125 18.9062C15.9594 18.9062 16.4844 19.4312 16.4844 20.0781C16.4844 20.725 15.9594 21.25 15.3125 21.25ZM24.6875 21.25C24.0406 21.25 23.5156 20.725 23.5156 20.0781C23.5156 19.4312 24.0406 18.9062 24.6875 18.9062C25.3344 18.9062 25.8594 19.4312 25.8594 20.0781C25.8594 20.725 25.3344 21.25 24.6875 21.25Z" fill="#875240"/>
<path d="M24.6875 28.2812H15.3125C12.082 28.2812 9.45312 30.9102 9.45312 34.1406C9.45312 37.3711 12.082 40 15.3125 40H24.6875C27.9188 40 30.5469 37.3711 30.5469 34.1406C30.5469 30.9102 27.9188 28.2812 24.6875 28.2812ZM17.6562 35.3125C17.0094 35.3125 16.4844 34.7875 16.4844 34.1406C16.4844 33.4938 17.0094 32.9688 17.6562 32.9688C18.3031 32.9688 18.8281 33.4938 18.8281 34.1406C18.8281 34.7875 18.3031 35.3125 17.6562 35.3125ZM22.3438 35.3125C21.6969 35.3125 21.1719 34.7875 21.1719 34.1406C21.1719 33.4938 21.6969 32.9688 22.3438 32.9688C22.9906 32.9688 23.5156 33.4938 23.5156 34.1406C23.5156 34.7875 22.9906 35.3125 22.3438 35.3125Z" fill="#875240"/>
<path d="M39.9996 13.0469C39.9996 15.9742 37.8418 18.407 35.0332 18.8383C35.1605 18.1016 35.234 17.343 35.234 16.5625C35.234 14.825 34.798 13.257 34.0371 11.875H38.8277C39.4754 11.875 39.9996 12.4 39.9996 13.0469Z" fill="#875240"/>
<path d="M4.76562 16.5625C4.76562 17.343 4.83828 18.1016 4.96641 18.8383C2.15859 18.407 0 15.9742 0 13.0469C0 12.4 0.525 11.875 1.17188 11.875H5.96484C5.20156 13.2594 4.76562 14.8273 4.76562 16.5625Z" fill="#875240"/>
</svg>
