<svg width="40" height="40" viewBox="0 0 40 40" fill="none" xmlns="http://www.w3.org/2000/svg">
<path d="M29.0331 10.4955C27.8177 9.27929 26.3157 8.47062 24.6889 8.06335V8.06366C22.1651 7.43085 19.8114 7.80694 17.6664 9.07319L22.4035 13.8109C23.5138 14.9212 21.8199 16.5416 20.7464 15.468L15.7749 10.4959C14.651 11.6197 12.5834 15.0785 11.7754 16.4396L15.7751 20.4393C16.8853 21.5495 15.1915 23.1699 14.118 22.0964L10.5519 18.5303C9.64401 20.1126 8.6726 21.8335 6.99667 24.92L9.14557 27.0689C10.2558 28.1791 8.56198 29.7995 7.48846 28.726L5.83526 27.0728C3.77807 30.9074 1.57667 35.4559 0.129088 38.2962C-0.268255 39.0731 0.300104 40.0001 1.17268 40.0001C1.89932 40.0001 16.194 31.7917 16.8272 31.4352L14.1924 28.8004C13.1029 27.7109 14.751 26.0448 15.8495 27.1433L18.9418 30.2356C21.9756 28.5001 23.886 27.3351 25.1701 26.5201L20.8208 22.1708C19.7314 21.0814 21.3795 19.4153 22.4779 20.5137L27.1687 25.2045C29.8756 23.339 31.409 21.3376 31.6975 17.9214C31.9307 14.9815 30.8442 12.3073 29.0331 10.4955Z" fill="#875240"/>
<path d="M36.6361 7.80602C37.6386 6.43156 37.5207 4.48727 36.2813 3.24781C35.0282 1.99352 33.0506 1.88594 31.6716 2.93195C31.3924 1.27031 29.9436 0 28.2041 0C26.2655 0 24.6885 1.57703 24.6885 3.51562V5.62922C26.9482 6.07328 29.0258 7.17344 30.6897 8.83828C32.3896 10.5386 33.4521 12.6366 33.8871 14.835L36.4861 14.8327C38.4304 14.8327 40.0018 13.2591 39.9995 11.3148C39.9971 9.41547 38.5014 7.88109 36.6361 7.80602Z" fill="#875240"/>
</svg>
