<svg width="40" height="38" viewBox="0 0 40 38" fill="none" xmlns="http://www.w3.org/2000/svg">
<path d="M39.9938 3.42458C39.9844 3.51676 39.7547 5.71129 38.7407 8.12309C37.9633 9.97309 36.9305 11.4568 35.6836 12.5341C33.6286 8.69325 30.7068 5.56083 26.7295 3.82458C27.6232 2.8402 28.692 2.10583 29.9296 1.62848C34.2921 -0.0558941 39.1196 2.14958 39.3227 2.24411C39.775 2.45504 40.0439 2.92848 39.9938 3.42458Z" fill="#875240"/>
<path d="M0.00596508 3.42458C0.0153401 3.51676 0.245028 5.71129 1.25909 8.12309C2.03643 9.97309 3.06925 11.4568 4.3162 12.5341C6.37112 8.69325 9.293 5.56083 13.2703 3.82458C12.3765 2.8402 11.3078 2.10583 10.0702 1.62848C5.70761 -0.0558941 0.880106 2.14958 0.677059 2.24411C0.224715 2.45504 -0.044113 2.92848 0.00596508 3.42458Z" fill="#875240"/>
<path d="M36.1039 20.4163C35.1347 16.2471 33.3631 12.2463 30.3889 9.16922C28.3443 7.05102 25.6573 5.56273 22.6232 5.00586C19.5172 4.43625 17.0199 5.07484 17.2583 5.0293C14.4082 5.57367 11.7282 6.9768 9.61137 9.16844C6.63801 12.2406 4.86262 16.2493 3.89567 20.4155C2.79489 25.1523 3.35426 28.982 5.55739 31.7984C8.17848 35.1493 13.0317 36.9001 19.9826 37.0032H20.017C26.9678 36.9001 31.8211 35.1493 34.4422 31.7984C36.6454 28.982 37.2046 25.1523 36.1039 20.4163ZM12.0668 19.3569C11.4192 19.3569 10.895 18.8319 10.895 18.185C10.895 17.5373 11.4192 17.0131 12.0668 17.0131C12.7137 17.0131 13.2387 17.5373 13.2387 18.185C13.2387 18.8319 12.7137 19.3569 12.0668 19.3569ZM23.3311 31.5454C21.2179 32.5466 18.7857 32.5486 16.6685 31.5454C14.4044 30.4743 13.22 28.6094 13.334 26.2938C13.4804 23.3125 15.5149 21.3305 18.4021 20.4835C19.4474 20.1765 20.5521 20.1765 21.5982 20.4835C24.4857 21.3313 26.5192 23.313 26.6655 26.2938C26.7795 28.6094 25.5951 30.4742 23.3311 31.5454ZM27.9327 19.3569C27.2858 19.3569 26.7608 18.8319 26.7608 18.185C26.7608 17.5373 27.2858 17.0131 27.9327 17.0131C28.5804 17.0131 29.1046 17.5373 29.1046 18.185C29.1046 18.8319 28.5804 19.3569 27.9327 19.3569ZM23.6162 24.4007C23.1131 23.7359 22.2818 23.1273 20.9373 22.7327C20.3425 22.5582 19.6957 22.5469 19.0623 22.7327C17.5779 23.1687 15.7857 24.1601 15.6747 26.4086C15.6083 27.7727 16.2607 28.7602 17.6707 29.4274C19.1294 30.1173 20.8701 30.1173 22.3288 29.4274C23.7389 28.7602 24.3912 27.7727 24.3248 26.4086C24.2936 25.7874 24.1193 25.0663 23.6162 24.4007ZM18.0044 27.4453C17.3568 27.4453 16.8325 26.9203 16.8325 26.2734C16.8325 25.6258 17.3568 25.1016 18.0044 25.1016C18.6513 25.1016 19.1763 25.6258 19.1763 26.2734C19.1763 26.9203 18.6513 27.4453 18.0044 27.4453ZM21.995 27.4453C21.3482 27.4453 20.8232 26.9203 20.8232 26.2734C20.8232 25.6258 21.3482 25.1016 21.995 25.1016C22.6427 25.1016 23.1669 25.6258 23.1669 26.2734C23.167 26.9203 22.6427 27.4453 21.995 27.4453Z" fill="#875240"/>
</svg>
