<svg width="22" height="40" viewBox="0 0 22 40" fill="none" xmlns="http://www.w3.org/2000/svg">
<path d="M10.2435 13.1212C10.4849 13.4063 10.8399 13.5712 11.2134 13.5712C11.5881 13.5712 11.9431 13.4085 12.1856 13.1223C13.2712 11.8389 14.8823 9.48183 14.8823 6.78507C14.8823 4.09048 13.2723 1.7345 12.1866 0.450008C11.9442 0.16493 11.5903 0 11.2156 0C10.8421 0 10.486 0.162745 10.2446 0.448915C9.15783 1.73231 7.54894 4.08939 7.54785 6.78507C7.54894 9.48074 9.15674 11.8378 10.2435 13.1212Z" fill="#875240"/>
<path d="M11.2225 21.3262C11.4213 21.3349 16.1967 21.5249 19.0136 18.7091C20.9185 16.8031 21.4482 13.9982 21.588 12.3227C21.6186 11.9503 21.4842 11.5822 21.2199 11.3179C20.9556 11.0535 20.5875 10.9192 20.214 10.9509C18.5384 11.0907 15.7314 11.6193 13.8243 13.5242C11.7206 15.6301 11.2968 18.8325 11.2204 20.3977C11.145 18.8325 10.7201 15.6301 8.61534 13.5242C6.70827 11.6182 3.90337 11.0896 2.22676 10.9509C1.8543 10.9192 1.48622 11.0546 1.22189 11.3189C0.957566 11.5844 0.824312 11.9514 0.854895 12.3238C0.994703 13.9993 1.52335 16.8042 3.42824 18.7091C6.24843 21.5249 11.0227 21.3349 11.2225 21.3262Z" fill="#875240"/>
<path d="M13.8272 23.3177C11.7235 25.4235 11.2997 28.6238 11.2232 30.1912C11.1479 28.6238 10.723 25.4235 8.61822 23.3177C6.71224 21.4106 3.90734 20.883 2.23182 20.7443C1.85827 20.7137 1.49128 20.8481 1.22695 21.1113C0.962627 21.3745 0.827187 21.7437 0.85777 22.1151C0.997579 23.7895 1.52514 26.5977 3.43111 28.5015C5.35785 30.4293 8.20207 30.9481 9.86994 31.0814V38.3645C9.86994 39.1903 10.4423 39.8598 11.2691 39.8598C12.0949 39.8598 12.6683 39.1903 12.6683 38.3645V31.0737C14.3471 30.9296 17.1203 30.3944 19.0132 28.5026C20.9181 26.5977 21.4478 23.7928 21.5876 22.1162C21.6182 21.7437 21.4838 21.3745 21.2195 21.1113C20.9552 20.847 20.5871 20.7126 20.2136 20.7443C18.5391 20.8819 15.7342 21.4106 13.8272 23.3177Z" fill="#875240"/>
</svg>
