<svg width="24" height="24" viewBox="0 0 24 24" fill="none" xmlns="http://www.w3.org/2000/svg">
<path d="M9.78999 22.5788L9.78991 22.5789L9.79518 22.5843C10.302 23.1006 11.0232 23.341 11.9184 23.341C12.8378 23.341 13.5722 23.1025 14.0695 22.5787C14.5861 22.0363 14.8367 21.2995 14.85 20.4009L14.9309 14.9291H20.255C21.1175 14.9291 21.8174 14.7051 22.3119 14.2179C22.836 13.7299 23.0861 13.0293 23.0989 12.1599C23.1118 11.2904 22.8825 10.5898 22.3728 10.1017C21.8927 9.61458 21.1995 9.39058 20.3369 9.39058H15.0128L15.0906 4.13226C15.1039 3.23622 14.8761 2.51043 14.3714 1.99448C13.8911 1.47405 13.1803 1.23489 12.2879 1.23489C11.3671 1.23489 10.6234 1.47391 10.0998 1.99162C9.57786 2.50775 9.32772 3.23457 9.31444 4.13226L9.23665 9.39058H3.91261C3.04724 9.39058 2.33673 9.61588 1.81607 10.099L1.81598 10.0989L1.8102 10.1046C1.31569 10.5936 1.08147 11.2932 1.06864 12.1599C1.05582 13.0265 1.26935 13.7261 1.74939 14.2151L1.7493 14.2152L1.75509 14.2207C2.26146 14.7038 2.9653 14.9291 3.83068 14.9291H9.15472L9.07377 20.4009C9.06048 21.2996 9.28929 22.0364 9.78999 22.5788Z" fill="white" stroke="#CD7C02" stroke-width="0.5"/>
</svg>
